<svg xmlns="http://www.w3.org/2000/svg" version="1.1" xmlns:xlink="http://www.w3.org/1999/xlink" viewBox="0 0 16.41652918956011 3.950056914544903"><g transform="matrix(0.6994627881423167,0,0,0.6994627881423167,5.979223791058402,1.5994169400400273)"><rect width="18.113744698235525" height="18.113744698235525" x="-5.870082656356983" y="-8.519872349117762" fill="#fffdfa"></rect><g transform="matrix(1,0,0,1,0,0)" clip-path="url(#SvgjsClipPath195421)"><g clip-path="url(#SvgjsClipPath195416efb22d57-f89f-4e09-8ba9-1ac779976aae)"><path d=" M -0.7843532034152494 1.2148612276725532 C -0.7843532034152494 1.2148612276725532 -2.9428648226826715 0.942934852860928 -3.170238288626856 0.9798062257167415 C -3.39761175457104 1.0182139057748805 -4.237971794243125 1.2071796916609254 -4.168837970138474 1.2839950517772039 C -4.099704146033824 1.3608104118934823 -2.3360234777640727 1.6173737146818514 -2.1916106007454697 1.6173737146818514 C -2.0487340309291917 1.6173737146818514 -0.7843532034152494 1.2148612276725532 -0.7843532034152494 1.2148612276725532 Z" fill="#ba8437" transform="matrix(1,0,0,1,0,0)" fill-rule="nonzero"></path></g><g clip-path="url(#SvgjsClipPath195416efb22d57-f89f-4e09-8ba9-1ac779976aae)"><path d=" M -2.422056681094305 0.16556340848419082 C -2.422056681094305 -0.16167002561115512 -2.4128388378803516 -0.16935156162278292 -1.9749912852175644 -0.2246586209065034 C -1.5371437325547777 -0.27996568019022383 -0.7182919937152508 -0.29225613780882836 -0.5600523518757168 -0.2676752225716193 C -0.40181271003618324 -0.24309430733441012 -0.40949424604781104 -0.21544077769254993 -0.40949424604781104 0.007323766644657281 C -0.40949424604781104 0.23008831098186466 -0.40949424604781104 0.8691921071493005 -0.40949424604781104 1.0043871409539509 C -0.40949424604781104 1.139582174758601 -0.4002764028338577 1.2117886132679023 -0.7628449025826916 1.2993581238004595 C -1.126949709533851 1.3869276343330168 -2.0395161877152383 1.6020106426585958 -2.2161915159826786 1.6189100218841779 C -2.392866844250119 1.6342730939074335 -2.431274524308258 1.5313405113516205 -2.431274524308258 1.2286879924934835 C -2.431274524308258 0.9229628592306955 -2.422056681094305 0.27617752705163146 -2.422056681094305 0.16556340848419082 Z" fill="#000000" transform="matrix(1,0,0,1,0,0)" fill-rule="nonzero" stroke-width="0.015363072023255674" stroke="#cf9645"></path></g><g clip-path="url(#SvgjsClipPath195416efb22d57-f89f-4e09-8ba9-1ac779976aae)"><path d=" M -2.279180111278027 0.21779785336325996 C -2.279180111278027 -0.1048266591251093 -2.276107496873376 -0.1478432607902252 -1.8828128530780304 -0.20315032007394557 C -1.4895182092826853 -0.25845737935766605 -0.7382639873454826 -0.2999376738204563 -0.5953874175292042 -0.27689306578557277 C -0.45251084771292627 -0.25384845775068926 -0.4694102269385083 -0.15859741120650406 -0.4694102269385083 0.061094518726052094 C -0.4694102269385083 0.28078644865860825 -0.4694102269385083 0.9091360944097655 -0.4694102269385083 1.0427948210120899 C -0.4694102269385083 1.1764535476144142 -0.4617286909268805 1.24712367892139 -0.7874258178199001 1.3331568822516218 C -1.1146592519152465 1.4191900855818533 -1.935047297957099 1.631200479502782 -2.094823246998958 1.6465635515260375 C -2.254599196040817 1.6619266235492935 -2.286861647289654 1.5605303481958062 -2.286861647289654 1.262486750944646 C -2.286861647289655 0.9629068464911601 -2.279180111278027 0.32687566472837515 -2.279180111278027 0.21779785336325996 Z" fill="#000000" transform="matrix(1,0,0,1,0,0)" fill-rule="nonzero" stroke-width="0.030726144046511347" stroke="#cf9645"></path></g><g clip-path="url(#SvgjsClipPath195416efb22d57-f89f-4e09-8ba9-1ac779976aae)"><path d=" M -1.927365761945472 1.6250552506934797 C -2.065633410154773 1.6250552506934797 -2.090214325391982 1.5006143673051089 -2.090214325391982 1.2363695285051108 C -2.090214325391982 1.0566215858330197 -2.0871417109873307 0.7478238381655804 -2.0856054037850047 0.521986679423722 C -2.0840690965826796 0.38064641680976974 -2.082532789380354 0.27003229824232877 -2.082532789380354 0.23008831098186433 C -2.082532789380354 -0.08792727989952831 -2.0687060245594235 -0.1017540447204584 -1.7061375248105901 -0.15552479680185333 C -1.4034850059524535 -0.20007770566929473 -0.8411965699012955 -0.2661389153692942 -0.6168957183617625 -0.2661389153692942 C -0.5830969599106002 -0.2661389153692942 -0.5585160446733903 -0.2646026081669686 -0.5416166654478096 -0.26152999376231756 C -0.41256686045246216 -0.23848538572743405 -0.4141031676547873 -0.15245218239720226 -0.4156394748571133 0.019614224263261426 C -0.4156394748571133 0.03804991069116814 -0.4156394748571133 0.05802190432140053 -0.4156394748571133 0.07953020515395848 L -0.4156394748571133 1.0351132850004616 C -0.4156394748571133 1.170308318805112 -0.42792993247571776 1.2394421429097622 -0.7152193793105988 1.320866424633017 C -0.7566996737733889 1.3331568822516218 -1.727645825643148 1.6066195642655725 -1.899712232303611 1.6250552506934797 C -1.9089300755175649 1.6250552506934797 -1.9181479187315182 1.6250552506934797 -1.927365761945472 1.6250552506934797 Z" fill="#000000" transform="matrix(1,0,0,1,0,0)" fill-rule="nonzero"></path></g><g clip-path="url(#SvgjsClipPath195416efb22d57-f89f-4e09-8ba9-1ac779976aae)"><path d=" M -0.6168957183617634 -0.2507758433460381 C -0.5861695743152513 -0.2507758433460381 -0.5615886590780428 -0.24923953614371253 -0.5446892798524612 -0.24616692173906146 C -0.4156394748571146 -0.2231223137041779 -0.4310025468803702 -0.1324801887669695 -0.4310025468803702 0.07953020515395881 C -0.4310025468803702 0.29154059907488705 -0.4310025468803702 0.8968456367911608 -0.4310025468803702 1.0258954417865085 C -0.4310025468803702 1.1549452467818557 -0.4233210108687424 1.222542763684181 -0.7182919937152508 1.3055033526097615 C -1.0132629765617596 1.388463941535342 -1.755299355285009 1.5927927994446425 -1.8997122323036124 1.608155871467898 C -1.9089300755175658 1.6096921786702236 -1.9181479187315191 1.6096921786702236 -1.925829454743147 1.6096921786702236 C -2.0471977237268666 1.6096921786702236 -2.073314946166401 1.5067595961144107 -2.073314946166401 1.2363695285051106 C -2.073314946166401 0.9490800816702294 -2.0656334101547733 0.3345572007400023 -2.0656334101547733 0.2285520037795381 C -2.0656334101547733 -0.08178205109022652 -2.0579518741431455 -0.08946358710185426 -1.7015286032036139 -0.14323433918324913 C -1.3927308555361746 -0.1877872480506898 -0.8365876482943189 -0.2507758433460381 -0.6168957183617634 -0.2507758433460381 M -0.6168957183617634 -0.2815019873925494 L -0.6168957183617634 -0.2507758433460381 L -0.6168957183617634 -0.2815019873925494 L -0.6168957183617634 -0.2815019873925494 C -0.8411965699012955 -0.2815019873925494 -1.405021313154779 -0.2154407776925501 -1.7076738320129157 -0.17088786882510854 C -2.079460174975703 -0.11558080954138811 -2.09789586140361 -0.09714512311348134 -2.09789586140361 0.23008831098186466 C -2.09789586140361 0.2700322982423291 -2.0994321686059356 0.38064641680977007 -2.100968475808261 0.5219866794237222 C -2.1025047830105867 0.7478238381655808 -2.105577397415238 1.0581578930353455 -2.105577397415238 1.2379058357074366 C -2.105577397415238 1.4744971448655744 -2.093286939796633 1.6419546299190613 -1.927365761945472 1.6419546299190613 C -1.9181479187315191 1.6419546299190613 -1.9073937683152393 1.6419546299190613 -1.8966396178989609 1.6404183227167357 C -1.7245732112384977 1.621982636288829 -0.7505544449640875 1.348519954274878 -0.710610457703623 1.3362294966562733 C -0.4141031676547877 1.2532689077306927 -0.4002764028338581 1.1749172404120887 -0.4002764028338581 1.035113285000462 L -0.4002764028338581 1.0258954417865087 L -0.4002764028338581 0.07953020515395881 C -0.4002764028338581 0.05802190432140086 -0.4002764028338581 0.038049910691168476 -0.4002764028338581 0.01961422426326187 C -0.3987400956315321 -0.1493795679925506 -0.3987400956315321 -0.2507758433460381 -0.5400803582454854 -0.27535675858324715 C -0.5569797374710661 -0.27996568019022383 -0.5830969599106002 -0.2815019873925494 -0.6168957183617634 -0.2815019873925494 L -0.6168957183617634 -0.2815019873925494 Z" fill="#cf9645" transform="matrix(1,0,0,1,0,0)" fill-rule="nonzero"></path></g><g clip-path="url(#SvgjsClipPath195416efb22d57-f89f-4e09-8ba9-1ac779976aae)"><path d=" M -1.6569756943361722 -0.22004969929952678 L -1.652366772729195 -0.3475631970925489 C -1.6508304655268695 -0.372144112329758 -1.6416126223129162 -0.39518872036464153 -1.6262495502896606 -0.4136244067925483 C -1.610886478266405 -0.4320600932204551 -1.5909144846361722 -0.44281424363673405 -1.5694061838036149 -0.4458868580413853 L -1.2636810505408271 -0.47354038768324547 C -1.2421727497082689 -0.4750766948855711 -1.2222007560780361 -0.46739515887394323 -1.2099102984594317 -0.4520320868506875 C -1.196083533638502 -0.4366690148274319 -1.1884019976268743 -0.415160713994874 -1.1899383048291994 -0.38904349155533935 L -1.1976198408408272 -0.25231215054836376 L -1.0977598726896654 -0.2615299937623172 L -1.088542029475712 -0.3982613347692927 C -1.0854694150710609 -0.45510470125533864 -1.1023687942966425 -0.5058028389320824 -1.1315586311408277 -0.5396015973832449 C -1.1622847751873397 -0.5734003558344074 -1.2053013768524554 -0.5933723494646397 -1.2559995145291993 -0.588763427857663 L -1.5647972621966382 -0.5595735910134771 C -1.613959092671056 -0.5549646694065005 -1.6600483087408229 -0.5273111397646403 -1.6938470671919856 -0.4873671525041755 C -1.727645825643148 -0.44742316524371073 -1.7491541264757062 -0.393652413162316 -1.7506904336780318 -0.3383453538785955 L -1.7552993552850085 -0.2108318560855733 L -1.6569756943361722 -0.22004969929952678 Z" fill="#000000" transform="matrix(1,0,0,1,0,0)" fill-rule="nonzero"></path></g><g clip-path="url(#SvgjsClipPath195416efb22d57-f89f-4e09-8ba9-1ac779976aae)"><path d=" M -1.7829528849268685 -0.19546878406231766 L -1.781416577724543 -0.28303829459487506 L -1.6262495502896606 -0.2968650594158051 L -1.6231769358850094 -0.2092955488832478 Z" fill="#000000" transform="matrix(1,0,0,1,0,0)" fill-rule="nonzero"></path></g><g clip-path="url(#SvgjsClipPath195416efb22d57-f89f-4e09-8ba9-1ac779976aae)"><path d=" M -1.2360275208989662 -0.24923953614371253 L -1.2206644488757106 -0.31683705304603754 L -1.0654974214408286 -0.33373643227161875 L -1.0701063430478053 -0.25999368655999155 Z" fill="#000000" transform="matrix(1,0,0,1,0,0)" fill-rule="nonzero"></path></g><g clip-path="url(#SvgjsClipPath195416efb22d57-f89f-4e09-8ba9-1ac779976aae)"><path d=" M -2.279180111278027 0.5527128234702339 L -2.7707984160222083 0.4651433129376763 L -3.202500739875693 0.7155613869167441 L -2.7262455071547667 1.0443311282144154 L -2.2945431833012826 1.067375736249299 Z" fill="#000000" transform="matrix(1,0,0,1,0,0)" fill-rule="nonzero"></path></g><g clip-path="url(#SvgjsClipPath195416efb22d57-f89f-4e09-8ba9-1ac779976aae)"><path d=" M -2.2730348824687243 0.5189140650190713 L -2.7769436448315106 0.4298082472841882 L -3.2670256423733663 0.7124887725120927 L -2.7369996575710456 1.078129886665578 L -2.296079490503608 1.1011744947004614 L -2.2914705688966315 1.0335769777981365 L -2.713955049536162 1.0105323697632527 L -3.1395121445803444 0.7170976941190692 L -2.764653187212906 0.5004783785911644 L -2.2714985752663988 0.594193117933024 Z" fill="#cf9645" transform="matrix(1,0,0,1,0,0)" fill-rule="nonzero"></path></g><g clip-path="url(#SvgjsClipPath195416efb22d57-f89f-4e09-8ba9-1ac779976aae)"><path d=" M -0.5001363709850195 -0.2108318560855733 C -0.5001363709850195 0.056485597119075415 -0.5001363709850195 0.4651433129376763 -0.5001363709850195 0.5680758954934895 C -0.5001363709850195 0.6971257004888372 -0.4924548349733917 0.7647232173911622 -0.7689901313919938 0.8476838063167429 C -1.0455254278105959 0.9306443952423238 -1.739936283261752 1.0289680561911596 -1.873595009864077 1.0443311282144154 C -1.873595009864077 1.0443311282144154 -1.9918906644431456 1.0182139057748805 -1.8244331793896587 0.9874877617283693 C -1.483372980473383 0.927571780837672 -0.710610457703623 0.8246391982818593 -0.6245772543733912 0.700198314893488 C -0.49552744937804283 0.5143051434120944 -0.5001363709850195 -0.2108318560855733 -0.5001363709850195 -0.2108318560855733 Z" fill="#cf9645" transform="matrix(1,0,0,1,0,0)" fill-rule="nonzero"></path></g><g clip-path="url(#SvgjsClipPath195416efb22d57-f89f-4e09-8ba9-1ac779976aae)"><path d=" M -1.269826279350129 0.8446111919120916 C -1.269826279350129 0.7631869101888367 -1.2821167369687334 0.7386059949516275 -1.2391001353036177 0.6971257004888372 C -1.196083533638502 0.6556454060260468 -1.1899383048291998 0.6341371051934892 -1.1592121607826886 0.6587180204306982 C -1.128486016736177 0.6817626284655816 -1.1008324870943165 0.694053086084186 -1.1008324870943165 0.7232429229283719 C -1.1008324870943165 0.752432759772558 -1.1008324870943165 0.8615105711376732 -1.1023687942966425 0.9214265520283704 C -1.1023687942966425 0.9813425329190673 -1.1023687942966425 0.9874877617283697 -1.1023687942966425 1.0074597553586018 C -1.1023687942966425 1.0274317489888343 -1.1469217031640833 1.0812025010702293 -1.1684300039966415 1.1011744947004614 C -1.1899383048291998 1.1211464883306936 -1.196083533638502 1.1119286451167405 -1.2283459848873388 1.096565573093485 C -1.2621447433385011 1.0812025010702293 -1.269826279350129 1.0750572722609268 -1.269826279350129 1.0305043633934856 C -1.271362586552455 0.9844151473237184 -1.269826279350129 0.8446111919120916 -1.269826279350129 0.8446111919120916 Z" fill="#cf9645" transform="matrix(1,0,0,1,0,0)" fill-rule="nonzero"></path></g><g clip-path="url(#SvgjsClipPath195416efb22d57-f89f-4e09-8ba9-1ac779976aae)"><path d=" M -1.1330949383431537 0.7078798509051158 C -1.1330949383431537 0.7078798509051158 -1.1761115400082693 0.6771537068586047 -1.1837930760198971 0.6771537068586047 C -1.193010919233851 0.6771537068586047 -1.2391001353036177 0.7309244589399997 -1.2467816713152455 0.7432149165586039 C -1.2544632073268733 0.7539690669748831 -1.2544632073268733 1.062766814642322 -1.2544632073268733 1.062766814642322 C -1.2544632073268733 1.062766814642322 -1.2391001353036177 0.7524327597725573 -1.2175918344710595 0.7293881517376739 C -1.196083533638502 0.7032709292981394 -1.1791841544129205 0.6909804716795347 -1.1330949383431537 0.7078798509051158 Z" fill="#000000" transform="matrix(1,0,0,1,0,0)" fill-rule="nonzero"></path></g><g clip-path="url(#SvgjsClipPath195416efb22d57-f89f-4e09-8ba9-1ac779976aae)"><path d=" M -3.0442610980361593 0.718634001321395 L -2.764653187212906 0.555785437874885 C -2.764653187212906 0.555785437874885 -2.9428648226826715 0.7001983148934885 -2.9013845282198814 0.7647232173911622 C -2.8599042337570912 0.829248119888836 -2.658647990252442 0.9506163888725558 -2.658647990252442 0.9506163888725558 L -3.0442610980361593 0.718634001321395 Z" fill="#cf9645" transform="matrix(1,0,0,1,0,0)" fill-rule="nonzero"></path></g><g clip-path="url(#SvgjsClipPath195416efb22d57-f89f-4e09-8ba9-1ac779976aae)"><path d=" M -2.4758274331756995 1.4191900855818542 L -2.8937029922082536 1.6096921786702236 L -3.3023607080268547 1.6542450875376653 L -3.2916065576105757 1.4729608376632488 L -2.7032008991198833 1.2916765877888317 Z" fill="#ba8437" transform="matrix(1,0,0,1,0,0)" fill-rule="nonzero"></path></g></g><g><path d=" M 1.0635000000000001 1.0739999999999998 L 0.7695 1.0739999999999998 L 0.378 0.4829999999999999 L 0.378 1.0739999999999998 L 0.084 1.0739999999999998 L 0.084 0.016499999999999737 L 0.378 0.016499999999999737 L 0.7695 0.6149999999999998 L 0.7695 0.016499999999999737 L 1.0635000000000001 0.016499999999999737 L 1.0635000000000001 1.0739999999999998 M 1.89752197265625 0.9014999999999999 L 1.52252197265625 0.9014999999999999 L 1.4655219726562498 1.0739999999999998 L 1.15652197265625 1.0739999999999998 L 1.5420219726562499 0.016499999999999737 L 1.8810219726562498 0.016499999999999737 L 2.2650219726562497 1.0739999999999998 L 1.95452197265625 1.0739999999999998 L 1.89752197265625 0.9014999999999999 M 1.8240219726562499 0.6764999999999999 L 1.71002197265625 0.3344999999999998 L 1.59752197265625 0.6764999999999999 L 1.8240219726562499 0.6764999999999999 M 2.6460292968749997 0.016499999999999737 L 2.6460292968749997 0.6299999999999999 Q 2.6460292968749997 0.7154999999999998 2.685779296875 0.7619999999999998 Q 2.725529296875 0.8084999999999998 2.8065292968749995 0.8084999999999998 Q 2.887529296875 0.8084999999999998 2.9287792968749997 0.7612499999999998 Q 2.970029296875 0.7139999999999999 2.970029296875 0.6299999999999999 L 2.970029296875 0.016499999999999737 L 3.264029296875 0.016499999999999737 L 3.264029296875 0.6299999999999999 Q 3.264029296875 0.7754999999999999 3.202529296875 0.8782499999999999 Q 3.1410292968749998 0.9809999999999999 3.0352792968749998 1.0327499999999998 Q 2.9295292968749997 1.0844999999999998 2.8005292968749997 1.0844999999999998 Q 2.6715292968749997 1.0844999999999998 2.570279296875 1.0327499999999998 Q 2.4690292968749996 0.9809999999999999 2.4112792968749996 0.8789999999999998 Q 2.3535292968749997 0.7769999999999999 2.3535292968749997 0.6299999999999999 L 2.3535292968749997 0.016499999999999737 L 2.6460292968749997 0.016499999999999737 M 4.048491943359375 1.0739999999999998 L 3.7169919433593748 0.6104999999999998 L 3.7169919433593748 1.0739999999999998 L 3.4229919433593747 1.0739999999999998 L 3.4229919433593747 0.016499999999999737 L 3.7169919433593748 0.016499999999999737 L 3.7169919433593748 0.4724999999999998 L 4.045491943359375 0.016499999999999737 L 4.384491943359375 0.016499999999999737 L 3.9959919433593747 0.5294999999999999 L 4.403991943359374 1.0739999999999998 L 4.048491943359375 1.0739999999999998 M 5.04451171875 1.0739999999999998 L 4.83451171875 0.6839999999999998 L 4.80301171875 0.6839999999999998 L 4.80301171875 1.0739999999999998 L 4.509011718749999 1.0739999999999998 L 4.509011718749999 0.016499999999999737 L 4.97251171875 0.016499999999999737 Q 5.100011718749999 0.016499999999999737 5.18851171875 0.06074999999999986 Q 5.27701171875 0.10499999999999987 5.32201171875 0.1822499999999998 Q 5.36701171875 0.25949999999999984 5.36701171875 0.3554999999999998 Q 5.36701171875 0.4634999999999998 5.307761718749999 0.5452499999999998 Q 5.24851171875 0.6269999999999998 5.13451171875 0.6614999999999998 L 5.37301171875 1.0739999999999998 L 5.04451171875 1.0739999999999998 M 4.80301171875 0.4829999999999999 L 4.94851171875 0.4829999999999999 Q 5.0085117187499995 0.4829999999999999 5.03851171875 0.4544999999999998 Q 5.068511718749999 0.4259999999999998 5.068511718749999 0.3719999999999998 Q 5.068511718749999 0.32099999999999984 5.03776171875 0.29174999999999984 Q 5.007011718749999 0.26249999999999984 4.94851171875 0.26249999999999984 L 4.80301171875 0.26249999999999984 L 4.80301171875 0.4829999999999999 M 5.7915278320312495 0.016499999999999737 L 5.7915278320312495 1.0739999999999998 L 5.497527832031249 1.0739999999999998 L 5.497527832031249 0.016499999999999737 L 5.7915278320312495 0.016499999999999737 M 6.985502929687499 0.016499999999999737 L 6.621002929687499 1.0739999999999998 L 6.244502929687499 1.0739999999999998 L 5.8785029296874995 0.016499999999999737 L 6.193502929687499 0.016499999999999737 L 6.433502929687499 0.7799999999999998 L 6.672002929687499 0.016499999999999737 L 6.985502929687499 0.016499999999999737 M 7.368016845703124 0.2519999999999998 L 7.368016845703124 0.4244999999999999 L 7.705516845703125 0.4244999999999999 L 7.705516845703125 0.6479999999999999 L 7.368016845703124 0.6479999999999999 L 7.368016845703124 0.8384999999999998 L 7.750516845703125 0.8384999999999998 L 7.750516845703125 1.0739999999999998 L 7.074016845703124 1.0739999999999998 L 7.074016845703124 0.016499999999999737 L 7.750516845703125 0.016499999999999737 L 7.750516845703125 0.2519999999999998 L 7.368016845703124 0.2519999999999998 M 8.428477294921874 1.0739999999999998 L 8.218477294921874 0.6839999999999998 L 8.186977294921874 0.6839999999999998 L 8.186977294921874 1.0739999999999998 L 7.892977294921874 1.0739999999999998 L 7.892977294921874 0.016499999999999737 L 8.356477294921874 0.016499999999999737 Q 8.483977294921875 0.016499999999999737 8.572477294921875 0.06074999999999986 Q 8.660977294921874 0.10499999999999987 8.705977294921874 0.1822499999999998 Q 8.750977294921874 0.25949999999999984 8.750977294921874 0.3554999999999998 Q 8.750977294921874 0.4634999999999998 8.691727294921874 0.5452499999999998 Q 8.632477294921873 0.6269999999999998 8.518477294921874 0.6614999999999998 L 8.756977294921874 1.0739999999999998 L 8.428477294921874 1.0739999999999998 M 8.186977294921874 0.4829999999999999 L 8.332477294921874 0.4829999999999999 Q 8.392477294921875 0.4829999999999999 8.422477294921874 0.4544999999999998 Q 8.452477294921874 0.4259999999999998 8.452477294921874 0.3719999999999998 Q 8.452477294921874 0.32099999999999984 8.421727294921874 0.29174999999999984 Q 8.390977294921875 0.26249999999999984 8.332477294921874 0.26249999999999984 L 8.186977294921874 0.26249999999999984 L 8.186977294921874 0.4829999999999999 M 8.977493408203124 0.9967499999999998 Q 8.858993408203125 0.9089999999999998 8.849993408203124 0.7454999999999998 L 9.163493408203124 0.7454999999999998 Q 9.167993408203124 0.8009999999999998 9.196493408203125 0.8264999999999998 Q 9.224993408203124 0.8519999999999999 9.269993408203124 0.8519999999999999 Q 9.310493408203124 0.8519999999999999 9.336743408203123 0.8317499999999999 Q 9.362993408203124 0.8114999999999999 9.362993408203124 0.7754999999999999 Q 9.362993408203124 0.7289999999999999 9.319493408203124 0.7034999999999998 Q 9.275993408203124 0.6779999999999998 9.178493408203124 0.6464999999999999 Q 9.074993408203124 0.6119999999999999 9.011243408203123 0.5797499999999998 Q 8.947493408203124 0.5474999999999999 8.900243408203124 0.48524999999999985 Q 8.852993408203124 0.4229999999999998 8.852993408203124 0.3224999999999998 Q 8.852993408203124 0.2204999999999998 8.903993408203124 0.14774999999999983 Q 8.954993408203125 0.07499999999999984 9.044993408203124 0.03749999999999987 Q 9.134993408203124 -2.220446049250313e-16 9.248993408203123 -2.220446049250313e-16 Q 9.433493408203123 -2.220446049250313e-16 9.543743408203124 0.08624999999999983 Q 9.653993408203124 0.17249999999999988 9.661493408203125 0.3284999999999998 L 9.341993408203123 0.3284999999999998 Q 9.340493408203123 0.28049999999999986 9.312743408203124 0.25649999999999984 Q 9.284993408203125 0.23249999999999982 9.241493408203125 0.23249999999999982 Q 9.208493408203124 0.23249999999999982 9.187493408203125 0.2519999999999998 Q 9.166493408203124 0.27149999999999985 9.166493408203124 0.3074999999999998 Q 9.166493408203124 0.3374999999999998 9.189743408203125 0.35924999999999985 Q 9.212993408203124 0.3809999999999998 9.247493408203123 0.3967499999999998 Q 9.281993408203125 0.41249999999999987 9.349493408203124 0.4364999999999998 Q 9.449993408203124 0.47099999999999986 9.515243408203125 0.5047499999999998 Q 9.580493408203123 0.5384999999999999 9.627743408203123 0.5992499999999998 Q 9.674993408203123 0.6599999999999998 9.674993408203123 0.7529999999999999 Q 9.674993408203123 0.8474999999999998 9.627743408203123 0.9224999999999999 Q 9.580493408203123 0.9974999999999998 9.491243408203124 1.041 Q 9.401993408203124 1.0844999999999998 9.280493408203125 1.0844999999999998 Q 9.095993408203125 1.0844999999999998 8.977493408203124 0.9967499999999998 M 10.102486083984374 0.2519999999999998 L 10.102486083984374 0.4244999999999999 L 10.439986083984374 0.4244999999999999 L 10.439986083984374 0.6479999999999999 L 10.102486083984374 0.6479999999999999 L 10.102486083984374 0.8384999999999998 L 10.484986083984374 0.8384999999999998 L 10.484986083984374 1.0739999999999998 L 9.808486083984373 1.0739999999999998 L 9.808486083984373 0.016499999999999737 L 10.484986083984374 0.016499999999999737 L 10.484986083984374 0.2519999999999998 L 10.102486083984374 0.2519999999999998" fill="#000000" fill-rule="nonzero"></path></g><g></g></g><defs><clipPath id="SvgjsClipPath195421"><path d=" M -4.172867147681565 -0.5894207029347427 h 3.772867147681565 v 2.2528414058694852 h -3.772867147681565 Z"></path></clipPath><clipPath id="SvgjsClipPath195416efb22d57-f89f-4e09-8ba9-1ac779976aae"><path d=" M -4.172867147681565 -0.5894207029347429 L -0.3999999999999999 -0.5894207029347429 L -0.3999999999999999 1.6634207029347425 L -4.172867147681565 1.6634207029347425 Z"></path></clipPath></defs></svg>